<?xml version="1.0" standalone="no"?>
<!DOCTYPE svg PUBLIC "-//W3C//DTD SVG 20010904//EN"
 "http://www.w3.org/TR/2001/REC-SVG-20010904/DTD/svg10.dtd">
<svg version="1.0" xmlns="http://www.w3.org/2000/svg"
 width="1408.000000pt" height="1408.000000pt" viewBox="0 0 1408.000000 1408.000000"
 preserveAspectRatio="xMidYMid meet">
<metadata>
Created by potrace 1.11, written by Peter Selinger 2001-2013
</metadata>
<g transform="translate(0.000000,1408.000000) scale(0.100000,-0.100000)"
fill="#000000" stroke="none">
<path d="M506 11983 c2 -10 357 -2196 789 -4858 432 -2662 787 -4850 790
-4862 l5 -23 1335 0 1334 0 6 33 c3 17 170 1035 370 2261 201 1226 367 2231
369 2233 2 3 9 -26 15 -64 6 -37 171 -1044 366 -2238 195 -1193 358 -2182 361
-2198 l6 -27 1334 0 1334 0 5 23 c9 41 1575 9704 1575 9721 0 15 -102 16
-1210 16 -1126 0 -1210 -1 -1210 -17 0 -9 -142 -1249 -315 -2756 -173 -1506
-315 -2744 -315 -2750 0 -5 -2 -8 -5 -5 -3 2 -194 1233 -425 2734 -231 1501
-422 2744 -425 2762 l-6 32 -1084 0 -1083 0 -6 -27 c-3 -16 -193 -1243 -421
-2728 -229 -1485 -419 -2718 -422 -2740 l-7 -40 -7 35 c-3 19 -148 1265 -320
2768 l-314 2732 -1211 0 c-1149 0 -1212 -1 -1208 -17z"/>
<path d="M12295 4595 c-181 -33 -324 -89 -457 -178 -319 -213 -508 -501 -564
-859 -32 -202 -7 -472 60 -650 107 -286 345 -548 623 -687 324 -162 739 -170
1075 -22 170 75 362 227 488 386 267 338 333 843 163 1255 -164 397 -551 701
-967 759 -103 15 -334 12 -421 -4z"/>
</g>
</svg>
